<?xml version="1.0" standalone="no"?>
<!DOCTYPE svg PUBLIC "-//W3C//DTD SVG 20010904//EN"
 "http://www.w3.org/TR/2001/REC-SVG-20010904/DTD/svg10.dtd">
<svg version="1.0" xmlns="http://www.w3.org/2000/svg"
 width="486.000000pt" height="104.000000pt" viewBox="0 0 486.000000 104.000000"
 preserveAspectRatio="xMidYMid meet">

<g transform="translate(0.000000,104.000000) scale(0.100000,-0.100000)"
fill="#000000" stroke="none">
<path d="M3130 606 l0 -53 -60 -7 c-33 -4 -60 -11 -60 -15 0 -5 17 -5 38 0 85
20 82 24 83 -113 1 -68 5 -136 9 -153 4 -16 7 40 6 125 l-1 155 28 3 c26 3 27
2 27 -50 0 -29 3 -69 6 -90 l6 -36 30 34 c31 35 58 44 58 19 0 -26 36 -37 74
-21 30 12 35 12 50 -2 16 -16 19 -16 46 0 44 25 37 3 -15 -53 -49 -52 -59 -94
-29 -123 43 -44 80 -3 91 99 8 68 9 70 48 92 46 26 41 30 -10 9 -34 -15 -35
-14 -41 10 -8 30 -17 30 -34 0 -24 -45 -68 -39 -54 7 3 9 1 17 -5 17 -6 0 -11
-6 -11 -14 0 -16 -68 -46 -87 -39 -7 3 -13 13 -13 23 0 30 -18 33 -55 10 l-35
-22 0 66 0 65 35 7 c19 3 53 4 75 2 22 -2 36 0 31 5 -5 5 -39 7 -75 5 l-66 -3
0 38 c0 20 -4 37 -10 37 -5 0 -10 -18 -10 -40 0 -38 -1 -40 -31 -40 l-32 0 7
50 c4 32 3 50 -4 50 -5 0 -10 -23 -10 -54z m366 -321 c-4 -18 -15 -40 -27 -50
-18 -17 -21 -17 -36 -3 -21 22 -12 53 29 103 l33 40 3 -29 c2 -16 1 -44 -2
-61z"/>
<path d="M1276 579 c-3 -34 -6 -83 -6 -110 0 -46 -1 -48 -27 -46 -42 3 -38
-34 5 -52 30 -14 32 -18 33 -65 1 -28 5 -62 10 -76 6 -17 8 0 6 55 -2 76 -1
80 20 83 24 4 78 -30 170 -105 30 -25 57 -43 59 -41 4 5 -102 92 -158 130
l-37 24 54 40 c67 48 115 112 121 162 l5 37 -14 -36 c-24 -63 -71 -118 -145
-169 -28 -19 -37 -21 -59 -11 -25 11 -25 12 -22 121 4 121 -5 154 -15 59z m4
-190 c0 -5 -6 -9 -14 -9 -25 0 -46 12 -46 26 0 10 6 11 30 3 17 -6 30 -15 30
-20z"/>
<path d="M1890 521 c0 -37 3 -96 6 -130 l7 -61 34 35 c40 41 50 43 55 13 3
-26 44 -36 77 -19 14 8 20 8 24 -2 2 -8 12 -2 28 15 13 14 34 29 46 33 17 5
22 1 25 -17 3 -20 9 -23 48 -23 25 0 50 -3 57 -8 13 -8 58 6 68 22 4 7 14 5
30 -5 22 -14 27 -14 56 0 26 13 34 14 40 4 6 -9 16 -5 38 16 28 27 29 27 36 7
8 -25 27 -27 45 -6 12 14 15 14 31 -1 13 -12 30 -15 58 -11 29 3 41 1 45 -9
12 -31 66 -8 66 28 0 14 8 18 32 18 17 0 28 -3 25 -6 -3 -4 -2 -15 4 -26 14
-25 51 -20 64 10 5 12 15 22 22 22 6 0 18 3 27 6 13 5 16 -1 16 -25 0 -17 5
-31 10 -31 6 0 10 7 10 16 0 23 57 77 72 68 10 -5 10 -4 1 6 -11 12 -18 10
-42 -8 -16 -12 -31 -17 -33 -12 -2 6 -17 6 -41 -1 -29 -8 -42 -7 -53 2 -12 9
-20 9 -39 -1 -15 -8 -42 -11 -71 -7 -38 4 -53 0 -82 -19 -33 -23 -82 -33 -82
-16 0 4 -4 13 -9 21 -7 11 -13 10 -34 -4 -25 -16 -26 -15 -37 5 l-12 22 -29
-28 -29 -28 0 24 c0 21 -1 22 -12 7 -36 -46 -103 -52 -91 -7 4 16 0 18 -39 13
-23 -3 -59 -16 -79 -29 -48 -32 -79 -32 -79 1 0 28 -13 31 -56 15 -21 -8 -29
-8 -36 2 -6 10 -8 8 -8 -5 0 -21 -61 -53 -84 -44 -9 4 -16 16 -16 27 0 26 -29
26 -64 -1 l-26 -20 0 110 c0 67 -4 111 -10 111 -6 0 -10 -30 -10 -69z m1025
-117 c0 -10 -8 -20 -17 -22 -18 -3 -26 27 -11 42 12 11 28 0 28 -20z m-125 -3
c0 -11 -5 -23 -11 -27 -15 -9 -33 12 -26 30 9 23 37 20 37 -3z m-439 -11 c-13
-11 -32 -20 -44 -20 -19 0 -20 1 -2 20 10 11 30 20 44 20 l26 -1 -24 -19z"/>
<path d="M1670 464 c0 -8 5 -12 10 -9 6 4 8 11 5 16 -9 14 -15 11 -15 -7z"/>
<path d="M1788 419 c-10 -5 -18 -16 -18 -24 0 -16 -60 -55 -85 -55 -14 0 -16
7 -13 35 4 36 -5 47 -16 20 -3 -8 -1 -26 4 -40 12 -33 50 -33 87 -1 27 23 29
23 58 8 l30 -16 -35 -7 -35 -6 37 -2 c49 -1 56 14 18 38 -39 23 -38 33 3 48
29 10 30 12 7 12 -14 0 -33 -4 -42 -10z"/>
<path d="M1572 394 c-12 -8 -22 -10 -22 -5 0 6 -4 11 -10 11 -5 0 -10 -18 -10
-40 0 -48 11 -52 27 -10 7 19 24 36 45 45 24 10 27 14 13 15 -11 0 -31 -7 -43
-16z"/>
</g>
</svg>
